<?xml version="1.0" standalone="no"?>
<!DOCTYPE svg PUBLIC "-//W3C//DTD SVG 20010904//EN"
 "http://www.w3.org/TR/2001/REC-SVG-20010904/DTD/svg10.dtd">
<svg version="1.0" xmlns="http://www.w3.org/2000/svg"
 width="700.000000pt" height="700.000000pt" viewBox="0 0 700.000000 700.000000"
 preserveAspectRatio="xMidYMid meet">
<metadata>
Created by potrace 1.11, written by Peter Selinger 2001-2013
</metadata>
<g transform="translate(0.000000,700.000000) scale(0.100000,-0.100000)"
fill="#000000" stroke="none">
<path d="M2465 6085 c-356 -68 -642 -214 -880 -449 -66 -65 -101 -92 -132
-101 -24 -7 -43 -11 -43 -9 0 2 -33 -8 -72 -23 -312 -112 -608 -391 -772 -727
-74 -152 -106 -269 -111 -421 -9 -206 61 -382 207 -526 l58 -56 -57 -7 c-48
-6 -62 -12 -89 -41 -18 -21 -33 -49 -35 -68 -2 -17 -4 -172 -3 -343 1 -298 2
-313 22 -345 41 -67 -2 -63 749 -64 375 0 684 -3 687 -6 3 -3 -57 -68 -134
-144 l-139 -139 -148 -1 c-149 -2 -201 -10 -313 -52 -312 -117 -532 -425 -544
-764 -4 -92 11 -216 32 -269 26 -66 120 -100 285 -102 150 -3 271 24 402 89
217 107 394 327 446 553 20 88 22 106 23 236 l1 131 235 234 235 234 1412 0
c777 -1 1415 -3 1418 -6 7 -8 -18 -126 -50 -237 -110 -383 -354 -751 -670
-1009 -159 -130 -413 -268 -618 -337 -168 -57 -296 -84 -469 -101 -107 -10
-153 -41 -164 -110 -8 -58 15 -105 66 -134 22 -12 40 -20 40 -17 0 2 14 1 32
-4 28 -9 59 -14 138 -26 136 -19 354 -24 515 -11 91 7 111 10 200 27 28 5 61
12 75 14 160 31 373 106 554 197 434 219 804 594 1012 1027 83 173 163 408
188 552 3 19 8 46 11 60 3 13 7 42 11 65 3 22 9 42 14 45 4 3 84 4 177 4 147
-1 173 1 210 18 72 33 73 40 73 415 0 299 -2 331 -18 362 -34 63 -64 71 -259
71 -196 0 -177 -10 -188 102 -3 37 -8 79 -11 95 -90 496 -319 895 -704 1228
-109 94 -290 208 -447 282 -86 40 -271 108 -318 117 -11 2 -50 11 -86 20 -36
8 -88 18 -115 22 -27 3 -52 8 -56 11 -40 23 -923 23 -1058 -1 -14 -3 -44 -7
-68 -10 -61 -8 -194 -41 -279 -69 -47 -16 -73 -20 -74 -13 0 6 -2 79 -3 161
-3 163 -8 192 -41 245 -75 118 -191 158 -360 125z"/>
</g>
</svg>
